<svg class="app-header__logotype-royal-arms app-header__logotype--large" aria-hidden="true" focusable="false" height="35" width="42" viewBox="0 0 360 300" xmlns="http://www.w3.org/2000/svg">
  <path fill="currentColor" fill-rule="evenodd" d="M235 224c11 0 23 8 37 17l2 1 1 1 1 1 1 1c14 9 28 17 39 14h2l-1 2-11 7c-4 4-9 7-14 7-4 0-9-1-15-5-6-2-11-6-16-10l-2-1-1-1-2-1-1-1c-9-5-17-10-25-11l3 3c3 3 6 5 6 10l-3 9-2 4-3 8-1 4c0 2-2 7-9 10-9 5-23 7-44 7s-35-2-44-7c-7-3-9-8-9-10l-1-4-3-8-1-3-3-10c0-5 2-7 5-10l3-3c-9 1-18 7-27 12l-1 1-2 1-1 1c-5 4-10 8-16 10-6 4-11 5-15 5-5 0-10-3-14-7l-11-7-1-2h2c10 3 23-4 36-13h1l4-3 1-1 2-1c14-9 26-17 37-17 4 0 7 1 10 3 4 2 7 5 8 9l6 10 3 7-3 6-7 4-2 1c-2 1-4 2-4 4 5 3 12 5 19 6l28 2 28-2c7-1 14-3 19-6l-4-3-2-1c-3-2-6-3-7-5l-3-6 3-7 6-10c1-4 4-7 8-10l10-2Zm-66 9 17 2v12a6 6 0 0 1 8 6c0 3-2 5-3 7l-3-3c-2 0-1 10-6 10v2a4 4 0 1 1-9-2c-5 0-4-10-6-10l-3 3c-1-2-3-4-3-7a6 6 0 0 1 8-6Zm9 33c-2 0-3 1-3 3a3 3 0 1 0 3-3Zm-1-27c-2 2-5 5-5 8s4 4 4 7l-2 1-2-2c-1-2-1-5-5-5-3 0-4 3-4 5l1 4c1-2 2-2 3-2 2 0 2 2 3 4v1c1 3 1 5 4 5 2 0 3-1 3-3l-1-3 1-1 2 1-1 3c0 2 1 3 3 3 3 0 3-2 4-5s1-5 3-5c1 0 2 0 3 2l1-4c0-2-1-5-4-5-5 0-4 7-7 7l-2-1c0-3 4-4 4-7s-3-6-6-8ZM253 9l36 35 1-8c4 2 8 6 9 10 11 0 14 7 17 5 0 1-1 3-5 4 13 3 10 12 17 13-1 1-3 2-5 1 8 12 0 19 6 25-3 0-6-2-8-5 2 9-1 15 0 18-2 1-4-1-5-5v1l-2 4v1l3 2-1 1-1 1-8 8-1 1h-1c-3 4-5 7-5 11s5 11 11 19v-3l1-3 4-2 6 3 2 5-2 4-4 1-4-1h1c4 6 8 11 9 15 4 8 8 13 13 13s9-4 9-10c0-10-6-15-12-21l-1-1h-1c-6-6-13-13-13-25 0-11 9-16 15-16 4 0 6 1 8 3h3c6 0 7 4 8 9v2c1 4 2 7 7 8-5 2-11-1-14-9 1 15 16 12 14 23v1-1c-1-7-23-7-24-22v-1c0-3 1-6 3-7l-5-2c-4 0-11 5-11 13 0 20 27 23 27 45 0 5-1 9-5 12 3 0 6-1 7-3-2 9-11 9-14 5a14 14 0 0 1-3 0c2 4 4 7 8 7-8 6-18-2-16-11l-5-9c-1-2-2-1-2 2 0 7-6 13-6 18 0 6 6 11 7 11 2 0 4-3 5-2l1 6v15l4-4c2-2 4-2 6-2l3 2a5 5 0 0 1 1 4l-4 5-5 2a5 5 0 0 1-4-3v5c0 5-2 7-4 8 0 0-1-2-3-2l-3 2c0 2 3 2 3 5s-7 8-12 7l3-11-4 7c-1 4-3 4-5 3 2-2 5-10 9-13 4-2 6-3 7-9 1-7-1-10-1-16 0-5-2-5-3-5h-2c-5 0-23-12-23-24v-3c-8-1-13 2-13 9l2 7c2 2 3 3 0 4l-29 12c-3 1-3 0-5-2-1-1-2-2-4-1s1 3 1 4c0 2-1 6-12 6l3-5v-3l-2 3-4 4h-3l9-9c2-3 5-4 10-5 6-1 26-3 26-10s-8-7-8-16 4-18 27-18c-2-5-8-9-13-11-12-3-16-11-17-19l-9-1c-7 0-11-2-12-1s-2 2-1 3l6 9 4 3-2 3 2 1 1-1h6l6 8-9-2v1l6 2v4l-10-6c-4-1-6-2-7-6-2-4-7-14-10-17v-4l2-3 4-2h9l1-1-2-3h-1v-1h-1l-7-9v-1l-3-2-3 1-1 1a65 65 0 0 0-4-4l3-3h1l3-2h3l3 1 7 6 1 1 1-1 3-1 4 1 1 5v2l5 5c1-6 4-12 8-18h1l-1-1v-1a898 898 0 0 0 4-12l1-1 7 2 8-5 2-2h2c5-4 10-7 10-12 0-2-1-5-3-6l1 5c0 2-4 7-10 7-3 0-5-3-7-3l-2 1c0 4-2 7-4 7v-4l-2 3c0 3-2 6-5 7l1-6h-2l-1 1-2-2-2-1c0-1 2-3 4-3 2-1 6-3 5-4-1-2-7 1-10 3s-3 1-3 0v-2c-2-4-1-5 1-6l14-9 2-4 6-2 1-1-31-38V8l2 1ZM102 36c2 4 2 7 1 11 4 1 6 4 10 3-3 4-6 3-9 3h-2c11 3 13 14 19 15-4 3-7 1-10-1l-1-1-6-2c15 7 15 16 19 16-4 5-8-1-14-2 12 7 13 14 12 19 3 2 2 5 2 9l8-2-2 2c-6 7-11 13-14 22l-7-7c-2-2-4-1-5-1l20 22c3 3 3 6 4 8v3c0 3 5 6 4 8v4l1 2c0 2-2 4-5 4 2-4 0-6-3-6 1 7-5 8-7 7 2-1 3-4 2-7-2 2-4 4-6 4-3 0-4-1-5-3 2 1 5-1 5-2s-3-2-3-4c0-5 5-3 5-7 0-2-1-3-2-3s-3 1-3 3c-3-2 0-7-1-11 0 4-2 5-3 6l-2 2c-2-2 0-6-2-11l-2 5-2 3c-5-3-14-2-18 2l6 3v1c8 4 14 9 14 17 0 9-13 12-13 17 0 6 14 18 21 18 2 0 3-3 5-3h5c2 1 3 2 3 4 3 0 7 5 3 9 0-2-3-6-7-3 2 3 1 7-4 8 1-2 2-5-1-5h-2l-4 1h-2c-3 0-3 0-4-2l-5-4c-1 0-2 3 0 5-7 0-8-5-9-9 0-2-1-5-3-6v8c-4-3-7-7-7-10-1-3-1-5-3-6l-2-3 3-2c2-1 5-3 5-9 0-4-1-11-8-15 1 10 1 17-4 25-5 9-14 15-20 17-5 2-12 4-12 11 0 12 6 20 11 20 4 0 3-4 8-4 3 0 5 1 6 3 3-1 6 1 6 3 0 3-1 5-3 5 1-3-3-4-4-3-2 0 0 2 0 4s-1 4-5 5c1-1 1-3-1-3s-3 4-6 4c-5 0-6-2-11-1-3 0-3 2-2 3-6 0-5-7-4-8 2-2 3-3 1-4s-5 0-6 3c-5-9 2-9 0-20-1 5-4 8-6 9 1-2-2-6-2-10 0-8 6-11 6-14 0-1-2-3 0-5 1-1 3 1 5 1 6 0 11-8 12-18 1-11 5-19 10-27l1-4c-5 6-9 15-15 20 1 7-13 15-21 9 2 0 7-1 9-5l-3-1c-5 3-13-1-13-6 2 2 5 3 7 2l-3-9c0-21 33-35 33-52 0-6-4-9-8-9l-6 3c1 1 3 3 3 5 0 19-31 17-34 30-1-9 4-12 9-14l1-1h1v-1c4-2 8-5 9-10-4 6-11 10-15 8 10 0 7-21 18-21l4 1c3-2 7-4 10-4 5 0 12 3 12 12 0 10-7 18-15 26l-1 1-1 1-1 1c-7 7-15 15-15 24 0 6 4 9 9 9 12 0 19-20 31-37 8-11 13-33 18-44l-5 8-1 1c-2 4-4 7-8 8 4-4 1-14 4-21v-8l-3 10v2c-1 5-3 9-6 10 2-3-1-8-1-13 0-9 5-10 6-19-5 2-3 14-12 14 3-3 3-6 3-9v-1c0-3 1-6 4-10-4-1-7-5-7-8l9-3c-2-2 0-4 2-6 1 1 2 3 3 2a74 74 0 0 1 26-11l1-3c2 0 5 0 5 3 2-2 5-3 8-3Zm33 132a56 56 0 0 0 12 26l4 5 3-1 6 3c2 2 2 4 2 6v1l31 11 17 2h-1a42 42 0 0 1-22 11l-19-3-17-6c-2 1-5 2-7 0-3-1-5-5-5-7v-1l-6-6a72 72 0 0 1-17-35c5 2 8 0 9-1l1 2c5 0 9-4 9-7Zm170 53 6-1c4 1 6 4 6 7 0 2-1 3-3 4l-5 1c-2 0-3-1-5-3l-1-4 2-4Zm5 1-4 1-1 2c0 2 1 4 4 4 2 1 5 0 5-2v-1c0-2-2-3-4-4Zm-127-1a4 4 0 1 0 0 7 4 4 0 0 0 0-7Zm149-1-3 3v3c2 1 4 2 7 0l2-3v-3l-2-1-4 1Zm-167-6a4 4 0 0 0 0 8 4 4 0 0 0 0-8Zm184-10a9 9 0 1 1 0 18 9 9 0 0 1 0-18Zm-195-4c-4 0-8 4-9 5h-3l1 2v1l-3 8 4 5h5l-2-1h-1v-1l-2-2 1-4h1v-2l1 1 4 1 1-1c0-1 0-3-2-4l-1-1 1-1 2-2c2-1 3-2 5 0l1 1 2 1-2-4-4-2Zm195 6a7 7 0 1 0-1 13 7 7 0 0 0 1-13Zm-51-1 4 2 2 5-2 5-4 2-4-2-2-5 2-5 4-2ZM185 54c-3 2-5 5-6 8 2 0 5-2 7-5v12c-1-3-5-4-7-5 0 7 7 8 10 8 4 0 7-1 7-3 1-3-1-3-2-3-1-1-2 1-2 3-2-2-3-9 1-9 3 0 4 3 5 7 1-3 3-7 6-6 4 1 2 8-1 9 1-1 1-4-1-4s-3 2-3 3c0 2 3 4 6 5 5 1 9-2 10-4-2-1-4-1-6 1l3-9c0 2 2 4 4 6 1-2 1-6-1-9l-1-1 9 4c-4 4-9 14-11 23l2 5c0 4-2 7-5 8a64 64 0 0 1 21 22l-2 1-2 3-1 4 1 3 4 8 1 1 2 5 2 4c1 3 3 5 5 6v4a78 78 0 0 1-18 50l-8 8h-1l-3 1h-1a69 69 0 0 1-20-4 16 16 0 0 1 3-8l2-1c5-3 10-6 13-11 4-4 7-10 10-16 2-5 3-11 3-17v-1h-41v46l10 1c-2 1-3 3-3 6l-14-5c1-2 3-2 5-2v-46h-42l-1-5c-2-3-3-4-3-8l-4-7-3-4v-1l-4-4a71 71 0 0 1 26-33c-3-1-5-4-5-8 0-2 1-4 3-5-3-8-8-18-12-23l9-4c-3 4-3 8-2 10l5-6 3 9c-3-2-5-2-7-1 1 2 5 5 10 4 3-1 6-3 6-5 0-1-1-3-3-3s-2 3-1 4c-3-1-5-8-1-9 2-1 5 3 6 6 1-4 2-7 5-7 4 0 3 7 1 9 0-2-1-4-2-3-1 0-3 0-2 3 0 2 3 3 7 3 3 0 9-1 10-8-2 1-6 3-7 5V57c2 3 5 4 7 5-1-3-3-6-6-8h15Zm113 153-2 1-2 3 1 4 3 1 2-1 1-3c0-3-1-5-3-5Zm-131-43c3 0 4 2 4 4v1h1l1 1-1 1h-1l-1 22h1v2l-2 1c1 3-2 4-4 4-1 0-2-1-2-3l2-2 1 1-2 1 2 1 1-2c0-2-2-2-3-1-13-4-20-16-19-26h-1l1-2-1 1-2-2a2 2 0 0 1 3 0l1-1 8 2c6 0 11-3 13-3Zm22 24h1l1 1v1h1l-1 1-1 2h9l4-1c0-1-9 1-9-2l2-1 6-1-3 1h7c-2-1-6 2-9 1l-1-1-1 1 4 1 5 1c0 1-2 2-5 1l-1 1 1 1v1h1l-1 1c0-1 0 0 0 0s-1 0 0 0h-1v1h-1v1h-1 1l-1-1h1l-1-1v1-1l-1 1v-1h1v-1h-1 3v-1h-4l1 2v2h-2c0 1 0 0 0 0h-1v1-1h-1 1-1c0 1 0 0 0 0v-1h-1l1-1 2 1-1-2 1-1-3 1v2l-1 1v-1l-2 1v-1h-1l-1 1v-1l-1 1v-1h-1v1h-1v-1h1v-1h-2 2l-1-1h1l1 1 2-1h1l-1-1-1-2h-1l-1-1h1l-1-1c0-1 0 0 0 0v-1l-1 1v-1h1v-1h-1 1l1 1v-2 2l1 1 2 2v-2h-1l1-1 1-1v-1h1Zm-40-17c-1 11 7 19 15 22l-15-22Zm150 15v6c2 2 5 1 6-1 2-2 2-5 0-6-2-2-4-1-6 1Zm-111 4h1l-1 1h1-1v1h1v-1h1l-1-1h-1Zm2 0v1l1-1h-1Zm-35-20h-4l14 20 1-3v-1l-11-16Zm33 19v1l1-1h-1Zm3-14h1v1h1v2l-1 1 11 1 4-1-2-1c-2 0-9 2-9-1l3-1h1l5-1-3 1h7c-2-1-6 2-9 1h-3l4 1h4l3 1-5 1v1h5v1h-1 1l-1 1v2h-1 1-1v-1l-1 1v1-1h-1l1-1h-1v-1h2v-1h-5v2h-1l-1 1h-3v-1h1l-1-1v1l1-1h2-1v-2l-1 1h-3l-1 1h-1l-2 2v-1l-1 2-1-1v-1l-1 1v-1l-1 1v-1 1-1l-1 1v-1l-1 1v1l-1-1h1-1l1-1-1-1h-1v1l1-1h1l-1-1h2v1h2l1-1v-1h-2v-1 1l-1-1-1-1h1v-1h-1c-1 0 0 0 0 0l1-1h-1v-1h1v1-1h1v3h2v-1l1-1h-1l1-1v-1h2Zm-32-6-2 1h-1l10 14 1-3v-1l-8-11Zm31 8h1l-1 1h1-1v1h1v-2h-1Zm1 0h1v1-1h-1Zm-23-11-7 2 6 10a1958 1958 0 0 0 1-7c-1 0-2 0-1-1l1-1h1l-1-3Zm22 10v1h1l-1-1Zm120-7v6c2 2 5 1 6-1 2-2 2-5 0-6-2-2-4-1-6 1Zm-125-6v3l2 1h1v-3l1-1v-1l1 1 1-1 1 1 1 1v1l-1 2h19l-3-1c-2 0-12 2-12-1 0-2 2-2 5-2a52 52 0 0 0 1 0h6l-3 1h3v-1l4 1c-2-1-6 2-10 1v-1h-2l-3 1h11c3 0 4 1 4 2l-5 1h3l1 1h1-1v1h1-1v3h-1v-1 1h-1v-1h-1v-1 1-1h2v-2l-2 1h-4v1l1 1h-2v1h-2 1-1v-1l-1 1v-1c-1-1 0 0 0 0v-1 1-1h-1 1v-1c1 0 1 2 2 1h1-1l-1-2-4 1-3 1h-1l-1 1-2 1 1-1-2 1v-1h-2l-1 1 1-1-1 1v-1l-1 1v-1l-1 1v1-1l-1-1 1-1h-2 1v-1l1 1-1-1h1l-1-1 1 1h1v1l2-1h2l-1-1h-1l-2-2v1-1s-1 0 0 0h-1c-1 0-2 0-1-1h1v-1h-1l-1-1h1v-1l-1-1 1 1 1 1v-2l1 1Zm5 2h1l-1 1h1-1v1h1v-1h1v-1h-2Zm1-1v1l1-1h-1Zm-1-1v1h1l-1-1Zm-11-54v49h41a51 51 0 0 0-13-35c-3-4-8-8-13-10-5-3-10-4-15-4Zm-2 0c-5 0-11 1-16 4-5 2-10 6-13 11-4 4-7 9-10 15l-3 18v1h42v-49Zm9 7h-1l10 4a39 39 0 0 1 9 10l3-1-2 2c4 6 7 13 8 21v-2c2 0 2 2 2 2l-1 1v2l-1-1-1 1c-1 1-2 0-2-1l2-1h-14v3l-1-2v-1h-12l2 1-2 1-1-1-2 1 1-2-1-1 1-2 1 2v-18h-3l2-1h1v-16l-1 2-1-2 1-1-1-2 2 1 1-1s2 0 1 2Zm-41 29v3l2 1h1v-1l1-1-1-1 1-1v-1l1 1c0-1 0-1 0 0l1-1 1 1h1v1l1 1h-1l-1 2h19l-3-1c-2 0-12 2-12-1 0-2 3-2 6-2h6l-3 1c2 0 5-2 7 0-3-1-6 2-10 1v-1l-5 1h11c3 0 4 1 4 2l-5 1h3l1 1v1h1-1v3h-1v-1 1h-1v-1h-1v-1 1-1h2v-1l-1-1-1 1h-4v1l1 1h-2v1h-2 1-1v-1l-1 1v-1c-1-1 0 0 0 0v-1 1-1h-1 1v-1c1 0 1 2 2 1h1-1l-1-2c-5 0-3 3-7 2h-1l-1 1-1 1v-1l-1 1v-1l-2 1-1-1h-1l-1 1 1-1-1 1v-1l-1 1v-1l-1 1v1-1h-1v-1h1v-1h-2 1v-1l1 1-1-1h1l-1-1 1 1h1v1l2-1h2v-1h-1l-2-2v1-1h-1l-1-1h1v-1h-1v-1h1l-1-1v-1 1h1v1-2l1 1Zm169 2-1 2 2 4 3 2 2-1h1l1-2-2-4-4-2-2 1Zm-128-29v2l-1-1v12l1 1v1l2 1-2 1v1l-1 1v14l2-1-1 2h9v-1h2v-2l1 2h2v1h10v-2l1 1c-1-6-3-12-6-17h-1l-1-1h-1l1-2-2-1 1-1-8-7-8-4Zm9 7v1h2v2c1 0 2 3 1 4v1l1 4 3 4 1 1h1l1-1-4-4c-2-2-2-4-1-5v1l2 4 1 1 3 3-2 2h-1l-1-1-1-1c0 3 3 4 4 3h1v1h1l-1 1h1l-1 1-1 1 1 1v1h-1v-1h-1v1l-1-1v-1h-1v-1h2v-2l-2 1-3-4-3 2 1 2v1h-5v1l-1-1h-1v-1h1l-1-1h5l-2-2 3-2h3l-2-1c-1-1-2-1-2-3l-1 1h-1l-1 1h-2v1h-1v1h-1v-2l-1 1h-1v-1h2-1v-1l1-1v1h1l1-1 2-2-3-3v-1h-1v-3h-1l1-1v-1h1v3l2 1 1 2 1 1c0-2 2-2 2-3l-2-1h-1l2-1h-2l-1-1 1-1h2l1-1Zm-45 22h1l-1 1h1-1v1h1v-1h1v-1h-2Zm1-1v1l1-1h-1Zm-1-1v1h1l-1-1Zm100-13 6 1 4 4v4l-4 3-6-1c-3-1-5-5-4-8l4-3Zm-101 0v1l1 2 1 1h1v-3l1-1v-1h3l1 1v1h1l-1 1-1 2h17l-3-1c-3 0-11 2-11-1 0-2 2-2 4-2h6-3c3 1 5-1 8 1h-11l-3 1h10c2 0 3 1 3 2l-4 1 3 1c0-1 0 0 0 0h1v5l-1-1v-1l-1 1v1-1h-1l1-1h-2l1-1h1l1-1h-6v2h-1l-1 1h-2l1 1-1-1c-1 0 0 0 0 0h-1l1-1h-1v-1l-1 1 1-1c1-1 1 1 2 1l1-1h-1v-2l-1 1h-3l-2 1h-1l-2 2v-1c-1 1-2 0-2 2v-1h-1v-1l-1 1v-1 1l-1-1v1l-1-1-1 1v1-1h-1l1-1-1-1-1 1 1-1h1v-1h-1 2v1l2-1h2v-1h-1l-1-1h-1v-1 1-1c-1 1-2 0-2-1h1v-1h-1v-1h1l-1-1v-1l1 1 1 1v-1c-1 0 0 0 0 0v-1 1Zm105 3-4-1-2 2c-1 1 1 3 3 5h4l2-1v-3c0-1-1-2-3-2Zm-67 3h-1 1Zm-33-5h1l-1 1h1-1v1h1v-2h-1Zm1 0h1v1-1h-1Zm-1-1v1h1l-1-1Zm33-3 1 1c-1 1-1 0-1-1Zm-13-14c-3 1-3 3-7 4h-1v1c0 2 8 0 8 3 0 1-1 2-4 2-1 0-1 0 0 0h2l1 1v4h-1v-1h-1v1-1s0-1 0 0l-1-1h2v-2h-2v1h-2l1 2h-3v1h-1 1-1v-1h-1l1 1-1-1 1-1h-2l1-1c1 0 1 2 2 1h1l-1-1v-1h-1l-2 1-1 1h-2l-1 1-2 1v-1h-1l-1 1v-1h-2v1l-1-1 1-1h-2l1-1 1 1-1-1v-1h1v1h4l2-1-1-1v1-1h-1l-1-1h1v-1h-1l1-1h-1v-1h1v1h1c-1 0 0 0 0 0v-1 3h1l1-1-1-1 1-1 1-1v-1 1l1-1 1 1h1v1h1l-1 1-1 2h6l4-1c0-2-8 0-8-3l1-1v-1l3-2-1 1c2 0 2-2 6-2Zm13 13v1-1Zm0 0h-1 1Zm1-2v1h-1v-1h1Zm-1 0h-1 1Zm-26-5h1-1l1 1h-1v1h1v-1h1l-1-1h-1Zm2 0v1l1-1h-1Zm-2-1v1l1-1h-1Zm111-34-2 6v1l-1 1-1 4 38 22 4-4 1-1 4-4-4-3v5l-2-3v-1l-2 4 3 1c-2 3-5 1-6 0-3-1-4-2-3-4 1-1 4-1 4 2 2-1 2-3 2-4l-4-1c3-2 5-4 4-8-3 1-5 3-6 6l-2-2c-2 0-3 1-3 3 2-1 4 1 3 3-1 1-3 1-5-1-3-1-3-4-2-6l2 4 3-5h-4c1-1 2-3 4-3h1l-6-3-1 5-1-3-3 5 4-1c-2 2-4 3-7 2-2-2-3-3-2-4 0-2 3-2 3 1 2-1 3-3 2-4l-4-1c3-2 4-5 3-8-4 1-5 4-5 7l-2-2c-2 0-3 1-3 3 2-1 4 1 3 3-1 1-2 1-5-1-1 0-4-2-3-5l3 2 2-4h-4l4-2-4-2Zm-26 21-1 3c0 2 1 4 3 4h2l1-4-1-3-2-1-2 1Zm9-14c1-2 3-2 5-2l3 2 1 4-3 4c-3 3-6 3-8 0-2-2-1-6 2-8Zm4 0-3 1-2 4v1c1 2 4 2 5 0l2-3v-2l-2-1Zm-81-11h-1c-12 0-33 1-33 9 0 2 1 4 5 6 5-4 15-8 28-8 14 0 24 4 29 8 4-2 5-4 5-6 0-8-21-9-33-9ZM87 59l-11 5c-2 0-3 1-3 2l1 3c1 1 1-2 3-3 2 0 2 2 0 4 3-1 6-2 7 1 1 2 0 3-2 5l1 5c1 2 4 5 8 4 4-2 3-6 2-8l-3-4c-2 0-4-1-4-3-1-2 2-3 4-5-3-1-4-2-2-3h4c1-1-1-2-2-2l-3-1Zm68-10 4 7c0 3-2 5-3 8-1-3-4-4-4-7s1-5 3-8Zm44 0c2 3 3 5 3 8s-3 4-4 7c-1-3-3-5-3-8l4-7ZM74 54l-13 4c5 1 5 4 8 4 4 0 6-5 5-8Zm150 1c2 0 3 1 3 3s-1 3-3 3-3-1-3-3 1-3 3-3Zm-93 0c2 0 3 1 3 3s-1 3-3 3-3-1-3-3 1-3 3-3Zm149-1c-3 0-4 2-4 4l-1 2 12-3-7-3Zm-55-6c2 0 3 1 3 3s-1 3-3 3-3-1-3-3 1-3 3-3Zm-96 0c2 0 3 1 3 3s-1 3-3 3-3-1-3-3 1-3 3-3Zm-35-3-12 5c2 3 6 5 9 3 2-2 0-4 3-8Zm78-7 3 1v13h-3V38Zm10 0v14h-3V39l3-1ZM77 24c3 2 3 3 2 6 1-1 3-1 3 2-1-1-2 0-2 1l2 2c2 0 3-2 3-5l-2 2v-5l2 2-1-3h3v11l-14 4-6 3-1 1-6 3-8-8 2-2 2 3v-3l3 4h-3c3 2 5 2 6 1v-3c-1-1-2-1-2 1-2-2-1-3 1-3-3-2-4-3-3-6 3 1 4 2 4 5 0-2 3-2 3 1-2-1-2 0-2 2h5c3-1 2-3 2-5l-3 3-2-4h4l-3-3 5-2-1 4c2 0 3-1 3-3l2 5-4-1c1 2 2 4 5 3 2-1 3-2 3-4h-3c-2-2 0-3 2-2-2-3-2-4-1-7Zm53 17c2 0 3 1 3 3s-1 3-3 3-3-1-3-3 1-3 3-3Zm94 0c2 0 3 1 3 3s-1 3-3 3-3-1-3-3 1-3 3-3Zm-91-7c2 0 3 1 3 3s-1 3-3 3-3-1-3-3 1-3 3-3Zm88 0c2 0 3 1 3 3s-1 3-3 3-3-1-3-3 1-3 3-3Zm-35-1c2 0 3 1 3 3s-1 3-3 3-3-1-3-3 1-3 3-3Zm-17 0c2 0 3 1 3 3s-1 3-3 3-3-1-3-3 1-3 3-3ZM52 34l2 2-2 2-2-2 2-2Zm141-4c2 0 3 1 3 3s-1 3-3 3-3-1-3-3 1-3 3-3Zm-31 0c2 0 3 1 3 3s-1 3-3 3-3-1-3-3 1-3 3-3Zm24-2c-1 4-5 7-9 7s-8-3-9-7h18Zm-47 1c2 0 3 1 3 3s-1 3-3 3-3-1-3-3 1-3 3-3Zm76 0c2 0 3 1 3 3s-1 3-3 3-3-1-3-3 1-3 3-3Zm-61-1c2 0 3 1 3 3s-1 3-3 3-3-1-3-3 1-3 3-3Zm46 0c2 0 3 1 3 3s-1 3-3 3-3-1-3-3 1-3 3-3Zm8-1c2 0 3 1 3 3s-1 3-3 3-3-1-3-3 1-3 3-3Zm-61 0c2 0 3 1 3 3s-1 3-3 3-3-1-3-3 1-3 3-3Zm-96 1 2 2-2 2-2-2 2-2Zm3-4 2 2-2 2-2-2 2-2Zm6-1 2 2-2 2-2-2 2-2Zm5-9v4l3-2 1 3h-4l4 3 1 2c0 2-1 3-3 3-1 0-3-1-3-3v-4l-2 2-2-3 3-1-2-3 4-1Zm114 3c4 1 7 4 7 8h-7Zm-4 0v8h-7c1-4 4-7 7-8Zm-87 4v3h-3v-3h3Zm-14-2v3h-3v-3h3Zm7-3h3v3h-3v-3Zm-3-1v3h-3v-3h3ZM182 0l-4 7c3 0 5-2 7-4v10c-2-2-4-4-7-4 0 2 2 4 4 6h-10c2-2 4-4 4-6-3 0-5 2-7 4V3c2 2 4 4 7 4l-4-7Z"/>
</svg>
